<mxfile host="app.diagrams.net" modified="2024-06-03T18:37:25.710Z" agent="Mozilla/5.0 (Windows NT 10.0; Win64; x64) AppleWebKit/537.36 (KHTML, like Gecko) Chrome/125.0.0.0 Safari/537.36" etag="F-Tu8Nev6Pf1JZCovlCy" version="24.4.13" type="device">
  <diagram name="Seite-1" id="941VfR-jc90YbzuQLRrt">
    <mxGraphModel dx="1687" dy="1019" grid="1" gridSize="10" guides="1" tooltips="1" connect="1" arrows="1" fold="1" page="1" pageScale="1" pageWidth="827" pageHeight="1169" math="0" shadow="0">
      <root>
        <mxCell id="0" />
        <mxCell id="1" parent="0" />
        <mxCell id="paQ65etBIh_QepcT2seH-4" value="" style="rounded=1;arcSize=10;dashed=0;fillColor=none;gradientColor=none;strokeWidth=2;" vertex="1" parent="1">
          <mxGeometry x="20" y="42" width="310" height="310" as="geometry" />
        </mxCell>
        <mxCell id="paQ65etBIh_QepcT2seH-3" value="" style="ellipse;shape=cloud;whiteSpace=wrap;html=1;" vertex="1" parent="1">
          <mxGeometry x="80" y="550" width="747" height="610" as="geometry" />
        </mxCell>
        <mxCell id="paQ65etBIh_QepcT2seH-2" value="" style="image;aspect=fixed;html=1;points=[];align=center;fontSize=12;image=img/lib/azure2/other/Azure_A.svg;" vertex="1" parent="1">
          <mxGeometry x="370" y="860" width="184" height="173.51" as="geometry" />
        </mxCell>
        <mxCell id="paQ65etBIh_QepcT2seH-5" value="" style="dashed=0;html=1;shape=mxgraph.aws3.corporate_data_center;fillColor=#7D7C7C;gradientColor=none;dashed=0;" vertex="1" parent="1">
          <mxGeometry x="40" y="42" width="50" height="78" as="geometry" />
        </mxCell>
        <mxCell id="paQ65etBIh_QepcT2seH-1" value="" style="sketch=0;pointerEvents=1;shadow=0;dashed=0;html=1;strokeColor=none;fillColor=#005F4B;labelPosition=center;verticalLabelPosition=bottom;verticalAlign=top;align=center;outlineConnect=0;shape=mxgraph.veeam2.hyper_v_host;" vertex="1" parent="1">
          <mxGeometry x="60" y="200" width="240" height="140" as="geometry" />
        </mxCell>
        <mxCell id="paQ65etBIh_QepcT2seH-7" value="SRVDB&lt;br&gt;Ubuntu Linux&lt;div&gt;&amp;nbsp;DB&lt;/div&gt;" style="text;html=1;align=center;verticalAlign=middle;resizable=0;points=[];autosize=1;strokeColor=none;fillColor=none;" vertex="1" parent="1">
          <mxGeometry x="100" y="150" width="90" height="60" as="geometry" />
        </mxCell>
        <mxCell id="paQ65etBIh_QepcT2seH-8" value="&lt;div&gt;SRVMX&lt;/div&gt;Alpine Linux&amp;nbsp;&lt;div&gt;Mailserver&lt;/div&gt;" style="text;html=1;align=center;verticalAlign=middle;resizable=0;points=[];autosize=1;strokeColor=none;fillColor=none;" vertex="1" parent="1">
          <mxGeometry x="20" y="150" width="90" height="60" as="geometry" />
        </mxCell>
        <mxCell id="paQ65etBIh_QepcT2seH-9" value="Windows&amp;nbsp;&lt;div&gt;Server 2022&lt;/div&gt;" style="text;html=1;align=center;verticalAlign=middle;resizable=0;points=[];autosize=1;strokeColor=none;fillColor=none;" vertex="1" parent="1">
          <mxGeometry x="240" y="160" width="90" height="40" as="geometry" />
        </mxCell>
        <mxCell id="paQ65etBIh_QepcT2seH-11" value="" style="image;points=[];aspect=fixed;html=1;align=center;shadow=0;dashed=0;image=img/lib/allied_telesis/computer_and_terminals/Personal_Computer.svg;" vertex="1" parent="1">
          <mxGeometry x="690" y="126.34" width="75.6" height="102.46" as="geometry" />
        </mxCell>
        <mxCell id="paQ65etBIh_QepcT2seH-12" value="" style="verticalLabelPosition=bottom;html=1;verticalAlign=top;align=center;strokeColor=none;fillColor=#00BEF2;shape=mxgraph.azure.sql_database_sql_azure;" vertex="1" parent="1">
          <mxGeometry x="459.7" y="730" width="47.5" height="50" as="geometry" />
        </mxCell>
        <mxCell id="paQ65etBIh_QepcT2seH-13" value="" style="sketch=0;pointerEvents=1;shadow=0;dashed=0;html=1;strokeColor=none;fillColor=#505050;labelPosition=center;verticalLabelPosition=bottom;outlineConnect=0;verticalAlign=top;align=center;shape=mxgraph.office.clouds.cloud_exchange_online;" vertex="1" parent="1">
          <mxGeometry x="300" y="710" width="100" height="61" as="geometry" />
        </mxCell>
        <mxCell id="paQ65etBIh_QepcT2seH-14" value="" style="shape=flexArrow;endArrow=classic;html=1;rounded=0;entryX=0.4;entryY=0.164;entryDx=0;entryDy=0;entryPerimeter=0;" edge="1" parent="1" source="paQ65etBIh_QepcT2seH-1" target="paQ65etBIh_QepcT2seH-13">
          <mxGeometry width="50" height="50" relative="1" as="geometry">
            <mxPoint x="230" y="380" as="sourcePoint" />
            <mxPoint x="318.79999999999995" y="631" as="targetPoint" />
          </mxGeometry>
        </mxCell>
        <mxCell id="paQ65etBIh_QepcT2seH-15" value="" style="html=1;strokeWidth=1;shadow=0;dashed=0;shape=mxgraph.ios7.misc.vpn;fillColor=#007AFF;strokeColor=none;buttonText=;strokeColor2=#222222;fontColor=#222222;fontSize=8;verticalLabelPosition=bottom;verticalAlign=top;align=center;sketch=0;" vertex="1" parent="1">
          <mxGeometry x="155" y="510" width="35" height="35" as="geometry" />
        </mxCell>
        <mxCell id="paQ65etBIh_QepcT2seH-16" value="" style="image;aspect=fixed;html=1;points=[];align=center;fontSize=12;image=img/lib/azure2/networking/Virtual_Networks.svg;" vertex="1" parent="1">
          <mxGeometry x="163" y="740" width="67" height="40" as="geometry" />
        </mxCell>
        <mxCell id="paQ65etBIh_QepcT2seH-17" value="" style="shape=flexArrow;endArrow=classic;startArrow=classic;html=1;rounded=0;exitX=0.147;exitY=0.279;exitDx=0;exitDy=0;exitPerimeter=0;entryX=0.25;entryY=1;entryDx=0;entryDy=0;" edge="1" parent="1" source="paQ65etBIh_QepcT2seH-3" target="paQ65etBIh_QepcT2seH-4">
          <mxGeometry width="100" height="100" relative="1" as="geometry">
            <mxPoint x="180" y="540" as="sourcePoint" />
            <mxPoint x="130" y="360" as="targetPoint" />
          </mxGeometry>
        </mxCell>
        <mxCell id="paQ65etBIh_QepcT2seH-18" value="Windows 10" style="text;html=1;align=center;verticalAlign=middle;resizable=0;points=[];autosize=1;strokeColor=none;fillColor=none;" vertex="1" parent="1">
          <mxGeometry x="590" y="90" width="90" height="30" as="geometry" />
        </mxCell>
        <mxCell id="paQ65etBIh_QepcT2seH-19" value="Windows 10" style="text;html=1;align=center;verticalAlign=middle;resizable=0;points=[];autosize=1;strokeColor=none;fillColor=none;" vertex="1" parent="1">
          <mxGeometry x="690" y="96.34" width="90" height="30" as="geometry" />
        </mxCell>
        <mxCell id="paQ65etBIh_QepcT2seH-20" value="" style="image;points=[];aspect=fixed;html=1;align=center;shadow=0;dashed=0;image=img/lib/allied_telesis/computer_and_terminals/Personal_Computer.svg;" vertex="1" parent="1">
          <mxGeometry x="597.2" y="126.34" width="75.6" height="102.46" as="geometry" />
        </mxCell>
        <mxCell id="paQ65etBIh_QepcT2seH-21" value="" style="shape=flexArrow;endArrow=classic;html=1;rounded=0;exitX=0.877;exitY=1.003;exitDx=0;exitDy=0;exitPerimeter=0;" edge="1" parent="1" source="paQ65etBIh_QepcT2seH-4">
          <mxGeometry width="50" height="50" relative="1" as="geometry">
            <mxPoint x="300" y="380" as="sourcePoint" />
            <mxPoint x="470" y="730" as="targetPoint" />
          </mxGeometry>
        </mxCell>
        <mxCell id="paQ65etBIh_QepcT2seH-22" value="" style="shape=flexArrow;endArrow=classic;html=1;rounded=0;entryX=0.5;entryY=0;entryDx=0;entryDy=0;entryPerimeter=0;" edge="1" parent="1" target="paQ65etBIh_QepcT2seH-27">
          <mxGeometry width="50" height="50" relative="1" as="geometry">
            <mxPoint x="330" y="250" as="sourcePoint" />
            <mxPoint x="410" y="120" as="targetPoint" />
          </mxGeometry>
        </mxCell>
        <mxCell id="paQ65etBIh_QepcT2seH-23" value="&lt;font style=&quot;font-size: 20px;&quot;&gt;1.&lt;/font&gt;" style="text;html=1;align=center;verticalAlign=middle;resizable=0;points=[];autosize=1;strokeColor=none;fillColor=none;" vertex="1" parent="1">
          <mxGeometry x="140" y="470" width="40" height="40" as="geometry" />
        </mxCell>
        <mxCell id="paQ65etBIh_QepcT2seH-24" value="&lt;font style=&quot;font-size: 20px;&quot;&gt;2.&lt;/font&gt;" style="text;html=1;align=center;verticalAlign=middle;resizable=0;points=[];autosize=1;strokeColor=none;fillColor=none;" vertex="1" parent="1">
          <mxGeometry x="240" y="390" width="40" height="40" as="geometry" />
        </mxCell>
        <mxCell id="paQ65etBIh_QepcT2seH-26" value="&lt;font style=&quot;font-size: 20px;&quot;&gt;4.&lt;/font&gt;" style="text;html=1;align=center;verticalAlign=middle;resizable=0;points=[];autosize=1;strokeColor=none;fillColor=none;" vertex="1" parent="1">
          <mxGeometry x="320" y="380" width="40" height="40" as="geometry" />
        </mxCell>
        <mxCell id="paQ65etBIh_QepcT2seH-27" value="" style="verticalLabelPosition=bottom;html=1;verticalAlign=top;align=center;strokeColor=none;fillColor=#00BEF2;shape=mxgraph.azure.virtual_machine;" vertex="1" parent="1">
          <mxGeometry x="560" y="760" width="60" height="50" as="geometry" />
        </mxCell>
        <mxCell id="paQ65etBIh_QepcT2seH-28" style="edgeStyle=orthogonalEdgeStyle;rounded=0;orthogonalLoop=1;jettySize=auto;html=1;exitX=0.69;exitY=0.5;exitDx=0;exitDy=0;exitPerimeter=0;entryX=0.5;entryY=1;entryDx=0;entryDy=0;entryPerimeter=0;" edge="1" parent="1" source="paQ65etBIh_QepcT2seH-12" target="paQ65etBIh_QepcT2seH-12">
          <mxGeometry relative="1" as="geometry" />
        </mxCell>
        <mxCell id="paQ65etBIh_QepcT2seH-29" value="" style="image;aspect=fixed;html=1;points=[];align=center;fontSize=12;image=img/lib/azure2/other/Windows_Virtual_Desktop.svg;" vertex="1" parent="1">
          <mxGeometry x="662" y="850" width="68" height="68" as="geometry" />
        </mxCell>
        <mxCell id="paQ65etBIh_QepcT2seH-30" value="" style="shape=flexArrow;endArrow=classic;html=1;rounded=0;" edge="1" parent="1" target="paQ65etBIh_QepcT2seH-29">
          <mxGeometry width="50" height="50" relative="1" as="geometry">
            <mxPoint x="680" y="230" as="sourcePoint" />
            <mxPoint x="854" y="633.46" as="targetPoint" />
          </mxGeometry>
        </mxCell>
        <mxCell id="paQ65etBIh_QepcT2seH-31" value="&lt;font style=&quot;font-size: 20px;&quot;&gt;3.&lt;/font&gt;" style="text;html=1;align=center;verticalAlign=middle;resizable=0;points=[];autosize=1;strokeColor=none;fillColor=none;" vertex="1" parent="1">
          <mxGeometry x="640" y="360" width="40" height="40" as="geometry" />
        </mxCell>
        <mxCell id="paQ65etBIh_QepcT2seH-33" value="Virtual Network" style="text;html=1;align=center;verticalAlign=middle;resizable=0;points=[];autosize=1;strokeColor=none;fillColor=none;" vertex="1" parent="1">
          <mxGeometry x="146.5" y="780" width="100" height="30" as="geometry" />
        </mxCell>
        <mxCell id="paQ65etBIh_QepcT2seH-34" value="Exchange Online" style="text;html=1;align=center;verticalAlign=middle;resizable=0;points=[];autosize=1;strokeColor=none;fillColor=none;" vertex="1" parent="1">
          <mxGeometry x="290" y="771" width="110" height="30" as="geometry" />
        </mxCell>
        <mxCell id="paQ65etBIh_QepcT2seH-35" value="SQL DB&amp;nbsp;" style="text;html=1;align=center;verticalAlign=middle;resizable=0;points=[];autosize=1;strokeColor=none;fillColor=none;" vertex="1" parent="1">
          <mxGeometry x="448.45" y="777" width="70" height="30" as="geometry" />
        </mxCell>
        <mxCell id="paQ65etBIh_QepcT2seH-36" value="" style="shape=image;html=1;verticalAlign=top;verticalLabelPosition=bottom;labelBackgroundColor=#ffffff;imageAspect=0;aspect=fixed;image=https://cdn4.iconfinder.com/data/icons/ui-office/512/User_Interface-60-128.png" vertex="1" parent="1">
          <mxGeometry x="390.45" y="10" width="128" height="128" as="geometry" />
        </mxCell>
        <mxCell id="paQ65etBIh_QepcT2seH-37" value="" style="shape=flexArrow;endArrow=classic;html=1;rounded=0;" edge="1" parent="1" target="paQ65etBIh_QepcT2seH-36">
          <mxGeometry width="50" height="50" relative="1" as="geometry">
            <mxPoint x="100" y="100" as="sourcePoint" />
            <mxPoint x="150" y="50" as="targetPoint" />
          </mxGeometry>
        </mxCell>
        <mxCell id="paQ65etBIh_QepcT2seH-38" value="&lt;font style=&quot;font-size: 20px;&quot;&gt;6.&lt;/font&gt;" style="text;html=1;align=center;verticalAlign=middle;resizable=0;points=[];autosize=1;strokeColor=none;fillColor=none;" vertex="1" parent="1">
          <mxGeometry x="280" y="86.34" width="40" height="40" as="geometry" />
        </mxCell>
        <mxCell id="paQ65etBIh_QepcT2seH-39" value="&lt;font style=&quot;font-size: 20px;&quot;&gt;5.&lt;/font&gt;" style="text;html=1;align=center;verticalAlign=middle;resizable=0;points=[];autosize=1;strokeColor=none;fillColor=none;" vertex="1" parent="1">
          <mxGeometry x="410" y="375" width="40" height="40" as="geometry" />
        </mxCell>
      </root>
    </mxGraphModel>
  </diagram>
</mxfile>
